<svg width="249" height="142" viewBox="0 0 249 142" fill="none" xmlns="http://www.w3.org/2000/svg">
<g filter="url(#filter0_d_496_251)">
<path d="M5.75017 65.9526C5.53684 65.9526 5.33684 65.8726 5.15017 65.7126C4.99017 65.5259 4.91017 65.3259 4.91017 65.1126C4.91017 64.9792 4.9235 64.8592 4.95017 64.7526L14.3502 39.0726C14.4302 38.7792 14.5902 38.5259 14.8302 38.3126C15.0968 38.0726 15.4568 37.9526 15.9102 37.9526H21.8302C22.2835 37.9526 22.6302 38.0726 22.8702 38.3126C23.1368 38.5259 23.3102 38.7792 23.3902 39.0726L32.7502 64.7526C32.8035 64.8592 32.8302 64.9792 32.8302 65.1126C32.8302 65.3259 32.7368 65.5259 32.5502 65.7126C32.3902 65.8726 32.1902 65.9526 31.9502 65.9526H27.0302C26.6302 65.9526 26.3235 65.8592 26.1102 65.6726C25.9235 65.4592 25.8035 65.2726 25.7502 65.1126L24.1902 61.0326H13.5102L11.9902 65.1126C11.9368 65.2726 11.8168 65.4592 11.6302 65.6726C11.4435 65.8592 11.1235 65.9526 10.6702 65.9526H5.75017ZM15.1502 55.2726H22.5902L18.8302 44.7126L15.1502 55.2726ZM46.957 66.3526C44.4237 66.3526 42.237 65.9392 40.397 65.1126C38.5837 64.2592 37.1704 63.0326 36.157 61.4326C35.1704 59.8059 34.6237 57.8326 34.517 55.5126C34.4904 54.3659 34.477 53.1526 34.477 51.8726C34.477 50.5659 34.4904 49.3259 34.517 48.1526C34.6237 45.8859 35.1837 43.9659 36.197 42.3926C37.2104 40.8192 38.637 39.6192 40.477 38.7926C42.317 37.9659 44.477 37.5526 46.957 37.5526C48.957 37.5526 50.7304 37.8059 52.277 38.3126C53.8237 38.7926 55.117 39.4459 56.157 40.2726C57.2237 41.0992 58.0237 42.0059 58.557 42.9926C59.117 43.9792 59.4104 44.9526 59.437 45.9126C59.4637 46.1526 59.3837 46.3526 59.197 46.5126C59.037 46.6726 58.837 46.7526 58.597 46.7526H52.757C52.4637 46.7526 52.237 46.7126 52.077 46.6326C51.9437 46.5259 51.8237 46.3792 51.717 46.1926C51.5304 45.7926 51.2504 45.3792 50.877 44.9526C50.5304 44.4992 50.037 44.1126 49.397 43.7926C48.7837 43.4726 47.9704 43.3126 46.957 43.3126C45.437 43.3126 44.237 43.7126 43.357 44.5126C42.5037 45.3126 42.037 46.5926 41.957 48.3526C41.877 50.6459 41.877 52.9659 41.957 55.3126C42.037 57.1792 42.5304 58.5259 43.437 59.3526C44.3437 60.1792 45.5437 60.5926 47.037 60.5926C48.0504 60.5926 48.9437 60.4192 49.717 60.0726C50.517 59.7259 51.1437 59.1926 51.597 58.4726C52.0504 57.7259 52.277 56.7792 52.277 55.6326V54.8726H48.517C48.2237 54.8726 47.9704 54.7792 47.757 54.5926C47.5704 54.3792 47.477 54.1259 47.477 53.8326V50.8726C47.477 50.5792 47.5704 50.3392 47.757 50.1526C47.9704 49.9392 48.2237 49.8326 48.517 49.8326H58.597C58.8904 49.8326 59.1304 49.9392 59.317 50.1526C59.5037 50.3392 59.597 50.5792 59.597 50.8726V55.4326C59.597 57.7259 59.077 59.6859 58.037 61.3126C56.997 62.9392 55.517 64.1926 53.597 65.0726C51.7037 65.9259 49.4904 66.3526 46.957 66.3526ZM75.9061 66.3526C73.5061 66.3526 71.3994 65.9659 69.5861 65.1926C67.7994 64.3926 66.4128 63.1792 65.4261 61.5526C64.4394 59.8992 63.9461 57.8059 63.9461 55.2726V38.9526C63.9461 38.6592 64.0394 38.4192 64.2261 38.2326C64.4128 38.0459 64.6528 37.9526 64.9461 37.9526H70.1061C70.3994 37.9526 70.6394 38.0459 70.8261 38.2326C71.0128 38.4192 71.1061 38.6592 71.1061 38.9526V55.2326C71.1061 56.9659 71.5194 58.2726 72.3461 59.1526C73.1994 60.0059 74.3861 60.4326 75.9061 60.4326C77.3994 60.4326 78.5594 60.0059 79.3861 59.1526C80.2394 58.2726 80.6661 56.9659 80.6661 55.2326V38.9526C80.6661 38.6592 80.7594 38.4192 80.9461 38.2326C81.1594 38.0459 81.3994 37.9526 81.6661 37.9526H86.8661C87.1328 37.9526 87.3594 38.0459 87.5461 38.2326C87.7594 38.4192 87.8661 38.6592 87.8661 38.9526V55.2726C87.8661 57.8059 87.3728 59.8992 86.3861 61.5526C85.3994 63.1792 84.0128 64.3926 82.2261 65.1926C80.4394 65.9659 78.3328 66.3526 75.9061 66.3526ZM90.9455 65.9526C90.7322 65.9526 90.5322 65.8726 90.3455 65.7126C90.1855 65.5259 90.1055 65.3259 90.1055 65.1126C90.1055 64.9792 90.1188 64.8592 90.1455 64.7526L99.5455 39.0726C99.6255 38.7792 99.7855 38.5259 100.025 38.3126C100.292 38.0726 100.652 37.9526 101.105 37.9526H107.025C107.479 37.9526 107.825 38.0726 108.065 38.3126C108.332 38.5259 108.505 38.7792 108.585 39.0726L117.945 64.7526C117.999 64.8592 118.025 64.9792 118.025 65.1126C118.025 65.3259 117.932 65.5259 117.745 65.7126C117.585 65.8726 117.385 65.9526 117.145 65.9526H112.225C111.825 65.9526 111.519 65.8592 111.305 65.6726C111.119 65.4592 110.999 65.2726 110.945 65.1126L109.385 61.0326H98.7055L97.1855 65.1126C97.1322 65.2726 97.0122 65.4592 96.8255 65.6726C96.6388 65.8592 96.3188 65.9526 95.8655 65.9526H90.9455ZM100.345 55.2726H107.785L104.025 44.7126L100.345 55.2726ZM131.189 66.3526C128.522 66.3526 126.309 65.9792 124.549 65.2326C122.789 64.4592 121.455 63.4592 120.549 62.2326C119.642 61.0059 119.162 59.6992 119.109 58.3126C119.109 58.0992 119.189 57.9126 119.349 57.7526C119.535 57.5659 119.749 57.4726 119.989 57.4726H125.029C125.402 57.4726 125.682 57.5392 125.869 57.6726C126.082 57.8059 126.269 57.9792 126.429 58.1926C126.642 58.5926 126.935 58.9792 127.309 59.3526C127.709 59.7259 128.215 60.0326 128.829 60.2726C129.469 60.4859 130.255 60.5926 131.189 60.5926C132.735 60.5926 133.895 60.3526 134.669 59.8726C135.469 59.3926 135.869 58.7392 135.869 57.9126C135.869 57.3259 135.655 56.8459 135.229 56.4726C134.802 56.0726 134.109 55.7259 133.149 55.4326C132.215 55.1126 130.962 54.7926 129.389 54.4726C127.362 54.0459 125.629 53.4992 124.189 52.8326C122.775 52.1392 121.695 51.2459 120.949 50.1526C120.202 49.0326 119.829 47.6459 119.829 45.9926C119.829 44.3659 120.282 42.9126 121.189 41.6326C122.122 40.3526 123.415 39.3526 125.069 38.6326C126.722 37.9126 128.682 37.5526 130.949 37.5526C132.789 37.5526 134.402 37.7926 135.789 38.2726C137.202 38.7526 138.389 39.3926 139.349 40.1926C140.309 40.9926 141.029 41.8459 141.509 42.7526C142.015 43.6326 142.282 44.4992 142.309 45.3526C142.309 45.5659 142.229 45.7659 142.069 45.9526C141.909 46.1126 141.709 46.1926 141.469 46.1926H136.189C135.895 46.1926 135.642 46.1392 135.429 46.0326C135.215 45.9259 135.029 45.7526 134.869 45.5126C134.709 44.9259 134.282 44.4192 133.589 43.9926C132.922 43.5392 132.042 43.3126 130.949 43.3126C129.775 43.3126 128.855 43.5259 128.189 43.9526C127.549 44.3526 127.229 44.9792 127.229 45.8326C127.229 46.3659 127.402 46.8326 127.749 47.2326C128.122 47.6326 128.722 47.9792 129.549 48.2726C130.402 48.5659 131.562 48.8726 133.029 49.1926C135.455 49.6459 137.415 50.2192 138.909 50.9126C140.402 51.5792 141.495 52.4592 142.189 53.5526C142.882 54.6192 143.229 55.9659 143.229 57.5926C143.229 59.4059 142.709 60.9792 141.669 62.3126C140.655 63.6192 139.242 64.6192 137.429 65.3126C135.615 66.0059 133.535 66.3526 131.189 66.3526Z" fill="white"/>
<path d="M5.15017 65.7126L4.77054 66.038L4.79557 66.0672L4.82478 66.0922L5.15017 65.7126ZM4.95017 64.7526L4.48064 64.5807L4.47153 64.6056L4.4651 64.6313L4.95017 64.7526ZM14.3502 39.0726L14.8197 39.2444L14.827 39.2245L14.8326 39.2041L14.3502 39.0726ZM14.8302 38.3126L15.1624 38.6863L15.1647 38.6842L14.8302 38.3126ZM22.8702 38.3126L22.5166 38.6661L22.5362 38.6857L22.5578 38.703L22.8702 38.3126ZM23.3902 39.0726L22.9078 39.2041L22.9133 39.2242L22.9204 39.2438L23.3902 39.0726ZM32.7502 64.7526L32.2804 64.9238L32.2902 64.9506L32.303 64.9762L32.7502 64.7526ZM32.5502 65.7126L32.9037 66.0661L32.9037 66.0661L32.5502 65.7126ZM26.1102 65.6726L25.7339 66.0018L25.7558 66.0269L25.7809 66.0488L26.1102 65.6726ZM25.7502 65.1126L26.2245 64.9544L26.2211 64.9441L26.2172 64.934L25.7502 65.1126ZM24.1902 61.0326L24.6572 60.854L24.5343 60.5326H24.1902V61.0326ZM13.5102 61.0326V60.5326H13.1629L13.0416 60.858L13.5102 61.0326ZM11.9902 65.1126L11.5216 64.938L11.5186 64.9462L11.5158 64.9544L11.9902 65.1126ZM11.6302 65.6726L11.9837 66.0261L11.9955 66.0143L12.0065 66.0018L11.6302 65.6726ZM15.1502 55.2726L14.678 55.108L14.4464 55.7726H15.1502V55.2726ZM22.5902 55.2726V55.7726H23.299L23.0612 55.1048L22.5902 55.2726ZM18.8302 44.7126L19.3012 44.5448L18.8251 43.2077L18.358 44.548L18.8302 44.7126ZM5.75017 65.4526C5.67415 65.4526 5.58625 65.4278 5.47557 65.3329L4.82478 66.0922C5.08743 66.3173 5.39952 66.4526 5.75017 66.4526V65.4526ZM5.5298 65.3872C5.43493 65.2765 5.41017 65.1886 5.41017 65.1126H4.41017C4.41017 65.4632 4.54541 65.7753 4.77054 66.038L5.5298 65.3872ZM5.41017 65.1126C5.41017 65.0118 5.42033 64.9335 5.43524 64.8738L4.4651 64.6313C4.42668 64.785 4.41017 64.9467 4.41017 65.1126H5.41017ZM5.4197 64.9244L14.8197 39.2444L13.8806 38.9007L4.48064 64.5807L5.4197 64.9244ZM14.8326 39.2041C14.8856 39.0097 14.9906 38.839 15.1624 38.6863L14.498 37.9389C14.1898 38.2128 13.9748 38.5487 13.8678 38.941L14.8326 39.2041ZM15.1647 38.6842C15.3172 38.5469 15.5466 38.4526 15.9102 38.4526V37.4526C15.3671 37.4526 14.8765 37.5982 14.4957 37.9409L15.1647 38.6842ZM15.9102 38.4526H21.8302V37.4526H15.9102V38.4526ZM21.8302 38.4526C22.1969 38.4526 22.3985 38.548 22.5166 38.6661L23.2237 37.959C22.8618 37.5971 22.3702 37.4526 21.8302 37.4526V38.4526ZM22.5578 38.703C22.7525 38.8587 22.859 39.0253 22.9078 39.2041L23.8726 38.941C23.7613 38.5331 23.5212 38.1931 23.1825 37.9221L22.5578 38.703ZM22.9204 39.2438L32.2804 64.9238L33.2199 64.5813L23.8599 38.9013L22.9204 39.2438ZM32.303 64.9762C32.3177 65.0056 32.3302 65.0476 32.3302 65.1126H33.3302C33.3302 64.9109 33.2894 64.7129 33.1974 64.529L32.303 64.9762ZM32.3302 65.1126C32.3302 65.1633 32.3131 65.2425 32.1966 65.359L32.9037 66.0661C33.1606 65.8093 33.3302 65.4885 33.3302 65.1126H32.3302ZM32.1966 65.359C32.1365 65.4191 32.0665 65.4526 31.9502 65.4526V66.4526C32.3139 66.4526 32.6438 66.326 32.9037 66.0661L32.1966 65.359ZM31.9502 65.4526H27.0302V66.4526H31.9502V65.4526ZM27.0302 65.4526C26.7019 65.4526 26.5303 65.3758 26.4394 65.2963L25.7809 66.0488C26.1167 66.3427 26.5585 66.4526 27.0302 66.4526V65.4526ZM26.4865 65.3433C26.3178 65.1505 26.2473 65.0227 26.2245 64.9544L25.2758 65.2707C25.3597 65.5224 25.5292 65.7679 25.7339 66.0018L26.4865 65.3433ZM26.2172 64.934L24.6572 60.854L23.7231 61.2111L25.2831 65.2911L26.2172 64.934ZM24.1902 60.5326H13.5102V61.5326H24.1902V60.5326ZM13.0416 60.858L11.5216 64.938L12.4587 65.2871L13.9787 61.2071L13.0416 60.858ZM11.5158 64.9544C11.4931 65.0227 11.4226 65.1505 11.2539 65.3433L12.0065 66.0018C12.2111 65.7679 12.3806 65.5224 12.4645 65.2707L11.5158 64.9544ZM11.2766 65.319C11.2319 65.3637 11.0796 65.4526 10.6702 65.4526V66.4526C11.1674 66.4526 11.6551 66.3547 11.9837 66.0261L11.2766 65.319ZM10.6702 65.4526H5.75017V66.4526H10.6702V65.4526ZM15.1502 55.7726H22.5902V54.7726H15.1502V55.7726ZM23.0612 55.1048L19.3012 44.5448L18.3591 44.8803L22.1191 55.4403L23.0612 55.1048ZM18.358 44.548L14.678 55.108L15.6223 55.4371L19.3023 44.8771L18.358 44.548ZM40.397 65.1126L40.1841 65.565L40.1921 65.5686L40.397 65.1126ZM36.157 61.4326L35.7295 61.6919L35.7346 61.7001L36.157 61.4326ZM34.517 55.5126L34.0171 55.5242L34.0176 55.5355L34.517 55.5126ZM34.517 48.1526L34.0175 48.129L34.0172 48.1412L34.517 48.1526ZM36.197 42.3926L35.7767 42.1218L36.197 42.3926ZM40.477 38.7926L40.682 39.2486L40.477 38.7926ZM52.277 38.3126L52.1214 38.7878L52.1288 38.7901L52.277 38.3126ZM56.157 40.2726L55.8459 40.664L55.8508 40.6678L56.157 40.2726ZM58.557 42.9926L58.1171 43.2304L58.1222 43.2394L58.557 42.9926ZM59.437 45.9126L58.9372 45.9264L58.9378 45.9472L58.9401 45.9678L59.437 45.9126ZM59.197 46.5126L58.8717 46.1329L58.8571 46.1454L58.8435 46.159L59.197 46.5126ZM52.077 46.6326L51.7647 47.023L51.8061 47.0561L51.8534 47.0798L52.077 46.6326ZM51.717 46.1926L51.264 46.404L51.2727 46.4227L51.2829 46.4406L51.717 46.1926ZM50.877 44.9526L50.4799 45.2563L50.4899 45.2694L50.5008 45.2818L50.877 44.9526ZM49.397 43.7926L49.1657 44.2359L49.1734 44.2398L49.397 43.7926ZM43.357 44.5126L43.0207 44.1425L43.0151 44.1478L43.357 44.5126ZM41.957 48.3526L41.4575 48.3299L41.4574 48.3351L41.957 48.3526ZM41.957 55.3126L41.4573 55.3296L41.4575 55.334L41.957 55.3126ZM43.437 59.3526L43.7739 58.9831L43.437 59.3526ZM49.717 60.0726L49.5182 59.6137L49.5125 59.6163L49.717 60.0726ZM51.597 58.4726L52.0202 58.739L52.0244 58.732L51.597 58.4726ZM52.277 54.8726H52.777V54.3726H52.277V54.8726ZM47.757 54.5926L47.3808 54.9218L47.4027 54.9469L47.4278 54.9688L47.757 54.5926ZM59.317 50.1526L58.9408 50.4818L58.9517 50.4943L58.9635 50.5061L59.317 50.1526ZM58.037 61.3126L58.4583 61.5819L58.037 61.3126ZM53.597 65.0726L53.8025 65.5284L53.8054 65.5271L53.597 65.0726ZM46.957 65.8526C44.4768 65.8526 42.3633 65.4478 40.602 64.6565L40.1921 65.5686C42.1108 66.4307 44.3706 66.8526 46.957 66.8526V65.8526ZM40.6099 64.6602C38.8774 63.8448 37.5389 62.68 36.5795 61.165L35.7346 61.7001C36.8018 63.3851 38.2901 64.6736 40.1841 65.565L40.6099 64.6602ZM36.5845 61.1733C35.6499 59.6323 35.1202 57.7443 35.0165 55.4896L34.0176 55.5355C34.1272 57.9208 34.6909 59.9795 35.7295 61.6919L36.5845 61.1733ZM35.0169 55.5009C34.9903 54.3586 34.977 53.1491 34.977 51.8726H33.977C33.977 53.156 33.9904 54.3732 34.0172 55.5242L35.0169 55.5009ZM34.977 51.8726C34.977 50.5693 34.9903 49.3331 35.0169 48.1639L34.0172 48.1412C33.9904 49.3187 33.977 50.5625 33.977 51.8726H34.977ZM35.0165 48.1761C35.1199 45.9787 35.6609 44.1484 36.6174 42.6633L35.7767 42.1218C34.7065 43.7834 34.1275 45.7931 34.0176 48.1291L35.0165 48.1761ZM36.6174 42.6633C37.5743 41.1777 38.923 40.0389 40.682 39.2486L40.2721 38.3365C38.3511 39.1996 36.8465 40.4608 35.7767 42.1218L36.6174 42.6633ZM40.682 39.2486C42.4445 38.4568 44.5319 38.0526 46.957 38.0526V37.0526C44.4222 37.0526 42.1896 37.475 40.2721 38.3365L40.682 39.2486ZM46.957 38.0526C48.9158 38.0526 50.6349 38.3008 52.1214 38.7877L52.4327 37.8374C50.8258 37.311 48.9983 37.0526 46.957 37.0526V38.0526ZM52.1288 38.7901C53.6289 39.2556 54.8638 39.8833 55.8459 40.664L56.4682 39.8811C55.3703 39.0085 54.0185 38.3295 52.4252 37.835L52.1288 38.7901ZM55.8508 40.6678C56.8734 41.4603 57.623 42.316 58.1172 43.2303L58.9969 42.7548C58.4245 41.6958 57.574 40.7381 56.4633 39.8774L55.8508 40.6678ZM58.1222 43.2394C58.6491 44.1678 58.9132 45.0619 58.9372 45.9264L59.9369 45.8987C59.9075 44.8433 59.585 43.7907 58.9919 42.7458L58.1222 43.2394ZM58.9401 45.9678C58.9481 46.0398 58.9355 46.0782 58.8717 46.1329L59.5224 46.8922C59.832 46.6269 59.9793 46.2653 59.934 45.8573L58.9401 45.9678ZM58.8435 46.159C58.7834 46.2191 58.7134 46.2526 58.597 46.2526V47.2526C58.9607 47.2526 59.2907 47.126 59.5506 46.8661L58.8435 46.159ZM58.597 46.2526H52.757V47.2526H58.597V46.2526ZM52.757 46.2526C52.4975 46.2526 52.3605 46.2153 52.3007 46.1853L51.8534 47.0798C52.1136 47.2099 52.43 47.2526 52.757 47.2526V46.2526ZM52.3894 46.2421C52.3162 46.1836 52.2344 46.0901 52.1512 45.9445L51.2829 46.4406C51.4131 46.6684 51.5712 46.8682 51.7647 47.023L52.3894 46.2421ZM52.1701 45.9811C51.9588 45.5283 51.6494 45.0759 51.2533 44.6233L50.5008 45.2818C50.8514 45.6825 51.1019 46.0568 51.264 46.404L52.1701 45.9811ZM51.2742 44.6488C50.8712 44.1217 50.3118 43.6909 49.6207 43.3453L49.1734 44.2398C49.7622 44.5342 50.1896 44.8767 50.4799 45.2563L51.2742 44.6488ZM49.6283 43.3493C48.9181 42.9787 48.0162 42.8126 46.957 42.8126V43.8126C47.9245 43.8126 48.6493 43.9664 49.1658 44.2359L49.6283 43.3493ZM46.957 42.8126C45.3484 42.8126 44.0162 43.2376 43.0207 44.1426L43.6934 44.8825C44.4579 44.1875 45.5257 43.8126 46.957 43.8126V42.8126ZM43.0151 44.1478C42.028 45.0731 41.5405 46.5044 41.4576 48.3299L42.4565 48.3753C42.5336 46.6807 42.9794 45.552 43.699 44.8773L43.0151 44.1478ZM41.4574 48.3351C41.3769 50.6402 41.377 52.9717 41.4573 55.3296L42.4568 55.2955C42.3771 52.9601 42.3772 50.6516 42.4567 48.37L41.4574 48.3351ZM41.4575 55.334C41.5403 57.2653 42.054 58.7682 43.1002 59.722L43.7739 58.9831C43.0068 58.2836 42.5338 57.0932 42.4566 55.2912L41.4575 55.334ZM43.1002 59.722C44.118 60.65 45.4475 61.0926 47.037 61.0926V60.0926C45.6399 60.0926 44.5694 59.7084 43.7739 58.9831L43.1002 59.722ZM47.037 61.0926C48.1073 61.0926 49.0726 60.9094 49.9216 60.5288L49.5125 59.6163C48.8148 59.9291 47.9935 60.0926 47.037 60.0926V61.0926ZM49.9159 60.5313C50.8059 60.1457 51.5118 59.5464 52.0202 58.739L51.1739 58.2062C50.7757 58.8387 50.2282 59.3061 49.5182 59.6138L49.9159 60.5313ZM52.0244 58.732C52.5379 57.8863 52.777 56.8428 52.777 55.6326H51.777C51.777 56.7157 51.5628 57.5655 51.1697 58.2131L52.0244 58.732ZM52.777 55.6326V54.8726H51.777V55.6326H52.777ZM52.277 54.3726H48.517V55.3726H52.277V54.3726ZM48.517 54.3726C48.3402 54.3726 48.2051 54.3202 48.0863 54.2163L47.4278 54.9688C47.7357 55.2383 48.1072 55.3726 48.517 55.3726V54.3726ZM48.1333 54.2633C48.0294 54.1445 47.977 54.0094 47.977 53.8326H46.977C46.977 54.2424 47.1114 54.6139 47.3808 54.9218L48.1333 54.2633ZM47.977 53.8326V50.8726H46.977V53.8326H47.977ZM47.977 50.8726C47.977 50.6957 48.0285 50.5882 48.1106 50.5061L47.4035 49.799C47.1122 50.0903 46.977 50.4628 46.977 50.8726H47.977ZM48.1106 50.5061C48.2332 50.3836 48.3605 50.3326 48.517 50.3326V49.3326C48.0869 49.3326 47.7076 49.4949 47.4035 49.799L48.1106 50.5061ZM48.517 50.3326H58.597V49.3326H48.517V50.3326ZM58.597 50.3326C58.7519 50.3326 58.8527 50.3812 58.9408 50.4818L59.6933 49.8233C59.408 49.4972 59.0288 49.3326 58.597 49.3326V50.3326ZM58.9635 50.5061C59.0456 50.5882 59.097 50.6957 59.097 50.8726H60.097C60.097 50.4628 59.9619 50.0903 59.6706 49.799L58.9635 50.5061ZM59.097 50.8726V55.4326H60.097V50.8726H59.097ZM59.097 55.4326C59.097 57.6486 58.5954 59.511 57.6158 61.0432L58.4583 61.5819C59.5587 59.8608 60.097 57.8032 60.097 55.4326H59.097ZM57.6158 61.0432C56.6323 62.5814 55.23 63.7741 53.3887 64.618L53.8054 65.5271C55.8041 64.611 57.3618 63.297 58.4583 61.5819L57.6158 61.0432ZM53.3916 64.6167C51.5754 65.4353 49.4348 65.8526 46.957 65.8526V66.8526C49.546 66.8526 51.832 66.4165 53.8025 65.5284L53.3916 64.6167ZM69.5861 65.1926L69.3817 65.649L69.39 65.6525L69.5861 65.1926ZM65.4261 61.5526L64.9967 61.8088L64.9986 61.8119L65.4261 61.5526ZM64.2261 38.2326L64.5797 38.5861V38.5861L64.2261 38.2326ZM70.8261 38.2326L70.4726 38.5861V38.5861L70.8261 38.2326ZM72.3461 59.1526L71.9817 59.4949L71.987 59.5006L71.9926 59.5061L72.3461 59.1526ZM79.3861 59.1526L79.0272 58.8045L79.027 58.8047L79.3861 59.1526ZM80.9461 38.2326L80.6169 37.8563L80.6043 37.8672L80.5926 37.879L80.9461 38.2326ZM87.5461 38.2326L87.1926 38.5861L87.2043 38.5979L87.2169 38.6088L87.5461 38.2326ZM86.3861 61.5526L86.8136 61.8119L86.8155 61.8088L86.3861 61.5526ZM82.2261 65.1926L82.4247 65.6515L82.4304 65.6489L82.2261 65.1926ZM75.9061 65.8526C73.5592 65.8526 71.5217 65.4744 69.7822 64.7326L69.39 65.6525C71.2772 66.4573 73.453 66.8526 75.9061 66.8526V65.8526ZM69.7904 64.7362C68.0936 63.9764 66.786 62.8305 65.8536 61.2933L64.9986 61.8119C66.0395 63.528 67.5053 64.8087 69.3818 65.6489L69.7904 64.7362ZM65.8555 61.2963C64.9274 59.7413 64.4461 57.7434 64.4461 55.2726H63.4461C63.4461 57.8684 63.9514 60.0572 64.9968 61.8088L65.8555 61.2963ZM64.4461 55.2726V38.9526H63.4461V55.2726H64.4461ZM64.4461 38.9526C64.4461 38.7757 64.4976 38.6682 64.5797 38.5861L63.8726 37.879C63.5813 38.1703 63.4461 38.5428 63.4461 38.9526H64.4461ZM64.5797 38.5861C64.6617 38.504 64.7692 38.4526 64.9461 38.4526V37.4526C64.5363 37.4526 64.1638 37.5877 63.8726 37.879L64.5797 38.5861ZM64.9461 38.4526H70.1061V37.4526H64.9461V38.4526ZM70.1061 38.4526C70.283 38.4526 70.3905 38.504 70.4726 38.5861L71.1797 37.879C70.8884 37.5877 70.5159 37.4526 70.1061 37.4526V38.4526ZM70.4726 38.5861C70.5546 38.6682 70.6061 38.7757 70.6061 38.9526H71.6061C71.6061 38.5428 71.4709 38.1703 71.1797 37.879L70.4726 38.5861ZM70.6061 38.9526V55.2326H71.6061V38.9526H70.6061ZM70.6061 55.2326C70.6061 57.0379 71.0363 58.4886 71.9817 59.4949L72.7105 58.8102C72.0025 58.0566 71.6061 56.8939 71.6061 55.2326H70.6061ZM71.9926 59.5061C72.9625 60.4761 74.2898 60.9326 75.9061 60.9326V59.9326C74.4825 59.9326 73.4364 59.5357 72.6997 58.799L71.9926 59.5061ZM75.9061 60.9326C77.498 60.9326 78.8015 60.4746 79.7452 59.5005L79.027 58.8047C78.3174 59.5372 77.3009 59.9326 75.9061 59.9326V60.9326ZM79.7451 59.5006C80.7206 58.4946 81.1661 57.0417 81.1661 55.2326H80.1661C80.1661 56.8901 79.7583 58.0505 79.0272 58.8045L79.7451 59.5006ZM81.1661 55.2326V38.9526H80.1661V55.2326H81.1661ZM81.1661 38.9526C81.1661 38.7757 81.2176 38.6682 81.2997 38.5861L80.5926 37.879C80.3013 38.1703 80.1661 38.5428 80.1661 38.9526H81.1661ZM81.2754 38.6088C81.4038 38.4965 81.5286 38.4526 81.6661 38.4526V37.4526C81.2703 37.4526 80.9151 37.5953 80.6169 37.8563L81.2754 38.6088ZM81.6661 38.4526H86.8661V37.4526H81.6661V38.4526ZM86.8661 38.4526C87.0017 38.4526 87.1007 38.4943 87.1926 38.5861L87.8997 37.879C87.6182 37.5975 87.2639 37.4526 86.8661 37.4526V38.4526ZM87.2169 38.6088C87.3174 38.6969 87.3661 38.7977 87.3661 38.9526H88.3661C88.3661 38.5208 88.2014 38.1416 87.8754 37.8563L87.2169 38.6088ZM87.3661 38.9526V55.2726H88.3661V38.9526H87.3661ZM87.3661 55.2726C87.3661 57.7434 86.8848 59.7413 85.9567 61.2963L86.8155 61.8088C87.8608 60.0572 88.3661 57.8684 88.3661 55.2726H87.3661ZM85.9586 61.2933C85.0262 62.8305 83.7186 63.9764 82.0218 64.7362L82.4304 65.6489C84.3069 64.8087 85.7727 63.528 86.8136 61.8119L85.9586 61.2933ZM82.0275 64.7337C80.3169 65.4741 78.2808 65.8526 75.9061 65.8526V66.8526C78.3848 66.8526 80.5619 66.4577 82.4247 65.6514L82.0275 64.7337ZM90.3455 65.7126L89.9659 66.038L89.9909 66.0672L90.0201 66.0922L90.3455 65.7126ZM90.1455 64.7526L89.6759 64.5807L89.6668 64.6056L89.6604 64.6313L90.1455 64.7526ZM99.5455 39.0726L100.015 39.2444L100.022 39.2245L100.028 39.2041L99.5455 39.0726ZM100.025 38.3126L100.358 38.6863L100.36 38.6842L100.025 38.3126ZM108.065 38.3126L107.712 38.6661L107.732 38.6857L107.753 38.703L108.065 38.3126ZM108.585 39.0726L108.103 39.2041L108.109 39.2242L108.116 39.2438L108.585 39.0726ZM117.945 64.7526L117.476 64.9238L117.485 64.9506L117.498 64.9762L117.945 64.7526ZM117.745 65.7126L118.099 66.0661V66.0661L117.745 65.7126ZM111.305 65.6726L110.929 66.0018L110.951 66.0269L110.976 66.0488L111.305 65.6726ZM110.945 65.1126L111.42 64.9544L111.416 64.9441L111.413 64.934L110.945 65.1126ZM109.385 61.0326L109.853 60.854L109.73 60.5326H109.385V61.0326ZM98.7055 61.0326V60.5326H98.3582L98.2369 60.858L98.7055 61.0326ZM97.1855 65.1126L96.7169 64.938L96.7139 64.9462L96.7111 64.9544L97.1855 65.1126ZM96.8255 65.6726L97.179 66.0261L97.1908 66.0143L97.2018 66.0018L96.8255 65.6726ZM100.345 55.2726L99.8733 55.108L99.6418 55.7726H100.345V55.2726ZM107.785 55.2726V55.7726H108.494L108.257 55.1048L107.785 55.2726ZM104.025 44.7126L104.497 44.5448L104.02 43.2077L103.553 44.548L104.025 44.7126ZM90.9455 65.4526C90.8695 65.4526 90.7816 65.4278 90.6709 65.3329L90.0201 66.0922C90.2827 66.3173 90.5948 66.4526 90.9455 66.4526V65.4526ZM90.7251 65.3872C90.6302 65.2765 90.6055 65.1886 90.6055 65.1126H89.6055C89.6055 65.4632 89.7407 65.7753 89.9659 66.038L90.7251 65.3872ZM90.6055 65.1126C90.6055 65.0118 90.6156 64.9335 90.6306 64.8738L89.6604 64.6313C89.622 64.785 89.6055 64.9467 89.6055 65.1126H90.6055ZM90.615 64.9244L100.015 39.2444L99.076 38.9007L89.6759 64.5807L90.615 64.9244ZM100.028 39.2041C100.081 39.0097 100.186 38.839 100.358 38.6863L99.6933 37.9389C99.3851 38.2128 99.1701 38.5487 99.0631 38.941L100.028 39.2041ZM100.36 38.6842C100.513 38.5469 100.742 38.4526 101.105 38.4526V37.4526C100.562 37.4526 100.072 37.5982 99.691 37.9409L100.36 38.6842ZM101.105 38.4526H107.025V37.4526H101.105V38.4526ZM107.025 38.4526C107.392 38.4526 107.594 38.548 107.712 38.6661L108.419 37.959C108.057 37.5971 107.565 37.4526 107.025 37.4526V38.4526ZM107.753 38.703C107.948 38.8587 108.054 39.0253 108.103 39.2041L109.068 38.941C108.957 38.5331 108.717 38.1931 108.378 37.9221L107.753 38.703ZM108.116 39.2438L117.476 64.9238L118.415 64.5813L109.055 38.9013L108.116 39.2438ZM117.498 64.9762C117.513 65.0056 117.525 65.0476 117.525 65.1126H118.525C118.525 64.9109 118.485 64.7129 118.393 64.529L117.498 64.9762ZM117.525 65.1126C117.525 65.1633 117.508 65.2425 117.392 65.359L118.099 66.0661C118.356 65.8093 118.525 65.4885 118.525 65.1126H117.525ZM117.392 65.359C117.332 65.4191 117.262 65.4526 117.145 65.4526V66.4526C117.509 66.4526 117.839 66.326 118.099 66.0661L117.392 65.359ZM117.145 65.4526H112.225V66.4526H117.145V65.4526ZM112.225 65.4526C111.897 65.4526 111.726 65.3758 111.635 65.2963L110.976 66.0488C111.312 66.3427 111.754 66.4526 112.225 66.4526V65.4526ZM111.682 65.3433C111.513 65.1505 111.443 65.0227 111.42 64.9544L110.471 65.2707C110.555 65.5224 110.725 65.7679 110.929 66.0018L111.682 65.3433ZM111.413 64.934L109.853 60.854L108.918 61.2111L110.478 65.2911L111.413 64.934ZM109.385 60.5326H98.7055V61.5326H109.385V60.5326ZM98.2369 60.858L96.7169 64.938L97.654 65.2871L99.174 61.2071L98.2369 60.858ZM96.7111 64.9544C96.6884 65.0227 96.6179 65.1505 96.4492 65.3433L97.2018 66.0018C97.4064 65.7679 97.5759 65.5224 97.6598 65.2707L96.7111 64.9544ZM96.4719 65.319C96.4272 65.3637 96.275 65.4526 95.8655 65.4526V66.4526C96.3627 66.4526 96.8504 66.3547 97.179 66.0261L96.4719 65.319ZM95.8655 65.4526H90.9455V66.4526H95.8655V65.4526ZM100.345 55.7726H107.785V54.7726H100.345V55.7726ZM108.257 55.1048L104.497 44.5448L103.554 44.8803L107.314 55.4403L108.257 55.1048ZM103.553 44.548L99.8733 55.108L100.818 55.4371L104.498 44.8771L103.553 44.548ZM124.549 65.2326L124.347 65.6904L124.353 65.6929L124.549 65.2326ZM120.549 62.2326L120.147 62.5298L120.549 62.2326ZM119.109 58.3126H118.609V58.3222L118.609 58.3318L119.109 58.3126ZM119.349 57.7526L118.995 57.399L119.349 57.7526ZM125.869 57.6726L125.578 58.0794L125.591 58.0884L125.604 58.0966L125.869 57.6726ZM126.429 58.1926L126.87 57.9573L126.852 57.9233L126.829 57.8926L126.429 58.1926ZM127.309 59.3526L126.955 59.7061L126.961 59.7122L126.967 59.7181L127.309 59.3526ZM128.829 60.2726L128.646 60.7382L128.658 60.7429L128.67 60.7469L128.829 60.2726ZM134.669 59.8726L134.411 59.4438L134.405 59.4477L134.669 59.8726ZM135.229 56.4726L134.887 56.8373L134.893 56.8432L134.899 56.8488L135.229 56.4726ZM133.149 55.4326L132.986 55.9055L132.994 55.9083L133.003 55.9107L133.149 55.4326ZM129.389 54.4726L129.286 54.9618L129.289 54.9625L129.389 54.4726ZM124.189 52.8326L123.968 53.2816L123.979 53.2863L124.189 52.8326ZM120.949 50.1526L120.533 50.4299L120.536 50.4345L120.949 50.1526ZM121.189 41.6326L120.785 41.3379L120.781 41.3436L121.189 41.6326ZM125.069 38.6326L124.869 38.1741L125.069 38.6326ZM135.789 38.2726L135.625 38.7451L135.628 38.746L135.789 38.2726ZM139.349 40.1926L139.669 39.8084L139.349 40.1926ZM141.509 42.7526L141.067 42.9865L141.071 42.9943L141.075 43.002L141.509 42.7526ZM142.309 45.3526H142.809V45.3447L142.808 45.3369L142.309 45.3526ZM142.069 45.9526L142.422 46.3061L142.436 46.2925L142.448 46.278L142.069 45.9526ZM135.429 46.0326L135.205 46.4798L135.429 46.0326ZM134.869 45.5126L134.386 45.6441L134.408 45.7224L134.453 45.7899L134.869 45.5126ZM133.589 43.9926L133.307 44.406L133.317 44.4124L133.327 44.4184L133.589 43.9926ZM128.189 43.9526L128.454 44.3766L128.458 44.3737L128.189 43.9526ZM127.749 47.2326L127.371 47.56L127.377 47.567L127.383 47.5737L127.749 47.2326ZM129.549 48.2726L129.381 48.7438L129.386 48.7454L129.549 48.2726ZM133.029 49.1926L132.922 49.6811L132.929 49.6827L132.937 49.6841L133.029 49.1926ZM138.909 50.9126L138.698 51.3661L138.705 51.3691L138.909 50.9126ZM142.189 53.5526L141.766 53.8203L141.769 53.8251L142.189 53.5526ZM141.669 62.3126L141.274 62.005L141.273 62.0061L141.669 62.3126ZM137.429 65.3126L137.607 65.7796L137.429 65.3126ZM131.189 65.8526C128.564 65.8526 126.423 65.4846 124.744 64.7723L124.353 65.6929C126.194 66.4739 128.48 66.8526 131.189 66.8526V65.8526ZM124.75 64.7748C123.049 64.0276 121.794 63.0759 120.951 61.9354L120.147 62.5298C121.117 63.8426 122.528 64.8909 124.347 65.6903L124.75 64.7748ZM120.951 61.9354C120.098 60.7811 119.657 59.5697 119.608 58.2933L118.609 58.3318C118.667 59.8287 119.186 61.2307 120.147 62.5298L120.951 61.9354ZM119.609 58.3126C119.609 58.2405 119.63 58.1787 119.702 58.1061L118.995 57.399C118.748 57.6465 118.609 57.958 118.609 58.3126H119.609ZM119.702 58.1061C119.805 58.0029 119.895 57.9726 119.989 57.9726V56.9726C119.602 56.9726 119.265 57.1289 118.995 57.399L119.702 58.1061ZM119.989 57.9726H125.029V56.9726H119.989V57.9726ZM125.029 57.9726C125.358 57.9726 125.514 58.034 125.578 58.0794L126.159 57.2657C125.849 57.0444 125.446 56.9726 125.029 56.9726V57.9726ZM125.604 58.0966C125.762 58.1953 125.903 58.3255 126.029 58.4926L126.829 57.8926C126.634 57.6329 126.402 57.4165 126.134 57.2486L125.604 58.0966ZM125.987 58.4279C126.227 58.8779 126.552 59.3035 126.955 59.7061L127.662 58.999C127.318 58.655 127.056 58.3073 126.87 57.9573L125.987 58.4279ZM126.967 59.7181C127.422 60.1423 127.986 60.4797 128.646 60.7382L129.011 59.8069C128.445 59.5854 127.995 59.3095 127.65 58.987L126.967 59.7181ZM128.67 60.7469C129.377 60.9824 130.221 61.0926 131.189 61.0926V60.0926C130.29 60.0926 129.56 59.9894 128.987 59.7982L128.67 60.7469ZM131.189 61.0926C132.771 61.0926 134.042 60.85 134.932 60.2974L134.405 59.4477C133.749 59.8552 132.7 60.0926 131.189 60.0926V61.0926ZM134.926 60.3013C135.853 59.7448 136.369 58.9403 136.369 57.9126H135.369C135.369 58.5382 135.084 59.0403 134.411 59.4438L134.926 60.3013ZM136.369 57.9126C136.369 57.1874 136.097 56.5683 135.558 56.0963L134.899 56.8488C135.213 57.1235 135.369 57.4643 135.369 57.9126H136.369ZM135.571 56.1078C135.062 55.6307 134.283 55.2562 133.295 54.9544L133.003 55.9107C133.935 56.1956 134.542 56.5145 134.887 56.8373L135.571 56.1078ZM133.311 54.9596C132.348 54.6296 131.071 54.3046 129.488 53.9826L129.289 54.9625C130.852 55.2805 132.082 55.5955 132.986 55.9055L133.311 54.9596ZM129.492 53.9833C127.491 53.5622 125.796 53.0257 124.399 52.3788L123.979 53.2863C125.461 53.9728 127.233 54.5296 129.286 54.9618L129.492 53.9833ZM124.409 52.3837C123.058 51.7212 122.051 50.8802 121.362 49.8706L120.536 50.4345C121.34 51.6116 122.492 52.5573 123.968 53.2815L124.409 52.3837ZM121.365 49.8752C120.684 48.8544 120.329 47.5699 120.329 45.9926H119.329C119.329 47.7219 119.72 49.2107 120.533 50.4299L121.365 49.8752ZM120.329 45.9926C120.329 44.4653 120.752 43.1138 121.597 41.9216L120.781 41.3436C119.812 42.7113 119.329 44.2664 119.329 45.9926H120.329ZM121.593 41.9271C122.467 40.7284 123.685 39.7805 125.268 39.091L124.869 38.1741C123.146 38.9246 121.777 39.9767 120.785 41.338L121.593 41.9271ZM125.268 39.091C126.845 38.4045 128.734 38.0526 130.949 38.0526V37.0526C128.63 37.0526 126.599 37.4206 124.869 38.1741L125.268 39.091ZM130.949 38.0526C132.746 38.0526 134.302 38.2872 135.625 38.7451L135.952 37.8001C134.501 37.2979 132.831 37.0526 130.949 37.0526V38.0526ZM135.628 38.746C136.994 39.21 138.124 39.8228 139.029 40.5767L139.669 39.8084C138.653 38.9623 137.41 38.2951 135.949 37.7991L135.628 38.746ZM139.029 40.5767C139.949 41.3439 140.623 42.1484 141.067 42.9865L141.951 42.5186C141.434 41.5434 140.668 40.6413 139.669 39.8084L139.029 40.5767ZM141.075 43.002C141.549 43.8242 141.785 44.6113 141.809 45.3682L142.808 45.3369C142.779 44.3871 142.482 43.4409 141.942 42.5031L141.075 43.002ZM141.809 45.3526C141.809 45.4286 141.784 45.5165 141.689 45.6272L142.448 46.278C142.673 46.0153 142.809 45.7032 142.809 45.3526H141.809ZM141.715 45.599C141.655 45.6591 141.585 45.6926 141.469 45.6926V46.6926C141.832 46.6926 142.162 46.566 142.422 46.3061L141.715 45.599ZM141.469 45.6926H136.189V46.6926H141.469V45.6926ZM136.189 45.6926C135.955 45.6926 135.782 45.6502 135.652 45.5853L135.205 46.4798C135.502 46.6282 135.835 46.6926 136.189 46.6926V45.6926ZM135.652 45.5853C135.531 45.525 135.406 45.4179 135.285 45.2352L134.453 45.7899C134.651 46.0872 134.899 46.3268 135.205 46.4798L135.652 45.5853ZM135.351 45.381C135.148 44.6351 134.615 44.0369 133.851 43.5667L133.327 44.4184C133.949 44.8015 134.27 45.2166 134.386 45.6441L135.351 45.381ZM133.87 43.5791C133.095 43.0525 132.107 42.8126 130.949 42.8126V43.8126C131.977 43.8126 132.748 44.0259 133.307 44.406L133.87 43.5791ZM130.949 42.8126C129.723 42.8126 128.696 43.0341 127.919 43.5314L128.458 44.3737C129.014 44.0177 129.828 43.8126 130.949 43.8126V42.8126ZM127.924 43.5286C127.116 44.0332 126.729 44.8335 126.729 45.8326H127.729C127.729 45.1249 127.981 44.6719 128.454 44.3766L127.924 43.5286ZM126.729 45.8326C126.729 46.4852 126.945 47.0684 127.371 47.56L128.126 46.9051C127.859 46.5968 127.729 46.2466 127.729 45.8326H126.729ZM127.383 47.5737C127.835 48.0574 128.52 48.4381 129.381 48.7438L129.716 47.8013C128.924 47.5204 128.409 47.2077 128.114 46.8914L127.383 47.5737ZM129.386 48.7454C130.266 49.0478 131.447 49.3593 132.922 49.6811L133.135 48.7041C131.677 48.3859 130.538 48.084 129.711 47.7997L129.386 48.7454ZM132.937 49.6841C135.341 50.1331 137.256 50.6967 138.698 51.3661L139.119 50.4591C137.574 49.7418 135.57 49.1587 133.12 48.7011L132.937 49.6841ZM138.705 51.3691C140.132 52.0062 141.138 52.8295 141.766 53.8203L142.611 53.2848C141.853 52.089 140.672 51.1522 139.112 50.456L138.705 51.3691ZM141.769 53.8251C142.397 54.7908 142.729 56.0359 142.729 57.5926H143.729C143.729 55.8959 143.367 54.4477 142.608 53.2801L141.769 53.8251ZM142.729 57.5926C142.729 59.3031 142.241 60.7661 141.274 62.005L142.063 62.6201C143.177 61.1923 143.729 59.5087 143.729 57.5926H142.729ZM141.273 62.0061C140.325 63.2287 138.993 64.1791 137.25 64.8455L137.607 65.7796C139.491 65.0593 140.985 64.0098 142.064 62.619L141.273 62.0061ZM137.25 64.8455C135.504 65.513 133.487 65.8526 131.189 65.8526V66.8526C133.584 66.8526 135.726 66.4987 137.607 65.7796L137.25 64.8455Z" fill="white"/>
</g>
<g filter="url(#filter1_d_496_251)">
<path d="M10.9153 125.953C10.4887 125.953 10.1047 125.803 9.76333 125.505C9.46466 125.206 9.31533 124.822 9.31533 124.353V82.7526C9.31533 82.2832 9.46466 81.8992 9.76333 81.6006C10.1047 81.3019 10.4887 81.1526 10.9153 81.1526H17.8273C18.51 81.1526 19.022 81.3446 19.3633 81.7286C19.7473 82.0699 19.982 82.3472 20.0673 82.5606L31.3313 102.785L42.5953 82.5606C42.7233 82.3472 42.9367 82.0699 43.2353 81.7286C43.5767 81.3446 44.11 81.1526 44.8353 81.1526H51.6833C52.1527 81.1526 52.5367 81.3019 52.8353 81.6006C53.1767 81.8992 53.3473 82.2832 53.3473 82.7526V124.353C53.3473 124.822 53.1767 125.206 52.8353 125.505C52.5367 125.803 52.1527 125.953 51.6833 125.953H44.0673C43.598 125.953 43.1927 125.803 42.8513 125.505C42.5527 125.206 42.4033 124.822 42.4033 124.353V100.353L35.1713 113.729C35.0007 114.113 34.7447 114.454 34.4033 114.753C34.062 115.051 33.5927 115.201 32.9953 115.201H29.6673C29.07 115.201 28.6007 115.051 28.2593 114.753C27.918 114.454 27.6407 114.113 27.4273 113.729L20.1953 100.353V124.353C20.1953 124.822 20.046 125.206 19.7473 125.505C19.4487 125.803 19.0647 125.953 18.5953 125.953H10.9153ZM59.6928 125.953C59.3515 125.953 59.0315 125.825 58.7328 125.569C58.4768 125.27 58.3488 124.95 58.3488 124.609C58.3488 124.395 58.3702 124.203 58.4128 124.033L73.4528 82.9446C73.5808 82.4752 73.8368 82.0699 74.2208 81.7286C74.6475 81.3446 75.2235 81.1526 75.9488 81.1526H85.4208C86.1462 81.1526 86.7008 81.3446 87.0848 81.7286C87.5115 82.0699 87.7888 82.4752 87.9168 82.9446L102.893 124.033C102.978 124.203 103.021 124.395 103.021 124.609C103.021 124.95 102.871 125.27 102.573 125.569C102.317 125.825 101.997 125.953 101.613 125.953H93.7408C93.1008 125.953 92.6102 125.803 92.2688 125.505C91.9702 125.163 91.7782 124.865 91.6928 124.609L89.1968 118.081H72.1088L69.6768 124.609C69.5915 124.865 69.3995 125.163 69.1008 125.505C68.8022 125.803 68.2902 125.953 67.5648 125.953H59.6928ZM74.7328 108.865H86.6368L80.6208 91.9686L74.7328 108.865ZM109.665 125.953C109.239 125.953 108.855 125.803 108.513 125.505C108.215 125.206 108.065 124.822 108.065 124.353V82.7526C108.065 82.2832 108.215 81.8992 108.513 81.6006C108.855 81.3019 109.239 81.1526 109.665 81.1526H116.577C117.26 81.1526 117.772 81.3446 118.113 81.7286C118.497 82.0699 118.732 82.3472 118.817 82.5606L130.081 102.785L141.345 82.5606C141.473 82.3472 141.687 82.0699 141.985 81.7286C142.327 81.3446 142.86 81.1526 143.585 81.1526H150.433C150.903 81.1526 151.287 81.3019 151.585 81.6006C151.927 81.8992 152.097 82.2832 152.097 82.7526V124.353C152.097 124.822 151.927 125.206 151.585 125.505C151.287 125.803 150.903 125.953 150.433 125.953H142.817C142.348 125.953 141.943 125.803 141.601 125.505C141.303 125.206 141.153 124.822 141.153 124.353V100.353L133.921 113.729C133.751 114.113 133.495 114.454 133.153 114.753C132.812 115.051 132.343 115.201 131.745 115.201H128.417C127.82 115.201 127.351 115.051 127.009 114.753C126.668 114.454 126.391 114.113 126.177 113.729L118.945 100.353V124.353C118.945 124.822 118.796 125.206 118.497 125.505C118.199 125.803 117.815 125.953 117.345 125.953H109.665ZM162.603 125.953C162.133 125.953 161.749 125.803 161.451 125.505C161.152 125.206 161.003 124.822 161.003 124.353V82.7526C161.003 82.2832 161.152 81.8992 161.451 81.6006C161.749 81.3019 162.133 81.1526 162.603 81.1526H182.123C185.792 81.1526 188.8 81.6646 191.147 82.6886C193.493 83.7126 195.221 85.1846 196.331 87.1046C197.483 88.9819 198.059 91.2219 198.059 93.8246C198.059 95.3606 197.76 96.7259 197.163 97.9206C196.608 99.0726 195.904 100.033 195.051 100.801C194.24 101.569 193.472 102.123 192.747 102.465C194.368 103.233 195.797 104.491 197.035 106.241C198.315 107.99 198.955 110.038 198.955 112.385C198.955 115.201 198.315 117.633 197.035 119.681C195.797 121.686 193.963 123.243 191.531 124.353C189.141 125.419 186.197 125.953 182.699 125.953H162.603ZM172.459 117.633H181.419C183.253 117.633 184.64 117.099 185.579 116.033C186.517 114.966 186.987 113.75 186.987 112.385C186.987 110.891 186.496 109.633 185.515 108.609C184.576 107.585 183.211 107.073 181.419 107.073H172.459V117.633ZM172.459 98.9446H180.843C182.592 98.9446 183.893 98.4966 184.747 97.6006C185.643 96.7046 186.091 95.5526 186.091 94.1446C186.091 92.7792 185.643 91.6699 184.747 90.8166C183.893 89.9206 182.592 89.4726 180.843 89.4726H172.459V98.9446ZM224.369 126.593C220.444 126.593 217.031 125.953 214.129 124.673C211.228 123.393 208.967 121.473 207.345 118.913C205.724 116.31 204.828 113.067 204.657 109.185C204.615 107.35 204.593 105.515 204.593 103.681C204.593 101.846 204.615 99.9899 204.657 98.1126C204.828 94.2726 205.724 91.0512 207.345 88.4486C209.009 85.8032 211.292 83.8192 214.193 82.4966C217.095 81.1739 220.487 80.5126 224.369 80.5126C228.209 80.5126 231.58 81.1739 234.481 82.4966C237.425 83.8192 239.729 85.8032 241.393 88.4486C243.057 91.0512 243.953 94.2726 244.081 98.1126C244.167 99.9899 244.209 101.846 244.209 103.681C244.209 105.515 244.167 107.35 244.081 109.185C243.911 113.067 243.015 116.31 241.393 118.913C239.772 121.473 237.511 123.393 234.609 124.673C231.708 125.953 228.295 126.593 224.369 126.593ZM224.369 117.377C226.631 117.377 228.465 116.694 229.873 115.329C231.324 113.963 232.092 111.787 232.177 108.801C232.263 106.923 232.305 105.153 232.305 103.489C232.305 101.825 232.263 100.097 232.177 98.3046C232.092 96.2992 231.708 94.6779 231.025 93.4406C230.385 92.1606 229.489 91.2219 228.337 90.6246C227.185 90.0272 225.863 89.7286 224.369 89.7286C222.919 89.7286 221.617 90.0272 220.465 90.6246C219.313 91.2219 218.396 92.1606 217.713 93.4406C217.031 94.6779 216.647 96.2992 216.561 98.3046C216.519 100.097 216.497 101.825 216.497 103.489C216.497 105.153 216.519 106.923 216.561 108.801C216.689 111.787 217.457 113.963 218.865 115.329C220.273 116.694 222.108 117.377 224.369 117.377Z" fill="white"/>
<path d="M9.76333 125.505L9.40977 125.858L9.42155 125.87L9.43408 125.881L9.76333 125.505ZM9.76333 81.6006L9.43407 81.2243L9.42155 81.2352L9.40978 81.247L9.76333 81.6006ZM19.3633 81.7286L18.9896 82.0607L19.0092 82.0827L19.0311 82.1023L19.3633 81.7286ZM20.0673 82.5606L19.6031 82.7463L19.615 82.7759L19.6305 82.8038L20.0673 82.5606ZM31.3313 102.785L30.8945 103.028L31.3313 103.812L31.7681 103.028L31.3313 102.785ZM42.5953 82.5606L42.1666 82.3033L42.1624 82.3102L42.1585 82.3173L42.5953 82.5606ZM43.2353 81.7286L42.8616 81.3964L42.859 81.3993L43.2353 81.7286ZM52.8353 81.6006L52.4818 81.9541L52.4935 81.9659L52.5061 81.9768L52.8353 81.6006ZM52.8353 125.505L52.5061 125.128L52.4935 125.139L52.4818 125.151L52.8353 125.505ZM42.8513 125.505L42.4978 125.858L42.5095 125.87L42.5221 125.881L42.8513 125.505ZM42.4033 100.353H42.9033L41.9635 100.115L42.4033 100.353ZM35.1713 113.729L34.7315 113.491L34.7223 113.508L34.7144 113.525L35.1713 113.729ZM34.4033 114.753L34.0741 114.376L34.4033 114.753ZM28.2593 114.753L28.5886 114.376L28.2593 114.753ZM27.4273 113.729L26.9875 113.966L26.9902 113.971L27.4273 113.729ZM20.1953 100.353L20.6352 100.115L19.6953 100.353H20.1953ZM10.9153 125.453C10.6178 125.453 10.349 125.353 10.0926 125.128L9.43408 125.881C9.86031 126.254 10.3595 126.453 10.9153 126.453V125.453ZM10.1169 125.151C9.92282 124.957 9.81533 124.705 9.81533 124.353H8.81533C8.81533 124.938 9.00651 125.455 9.40977 125.858L10.1169 125.151ZM9.81533 124.353V82.7526H8.81533V124.353H9.81533ZM9.81533 82.7526C9.81533 82.3997 9.92282 82.1482 10.1169 81.9541L9.40978 81.247C9.00651 81.6503 8.81533 82.1668 8.81533 82.7526H9.81533ZM10.0926 81.9768C10.349 81.7525 10.6178 81.6526 10.9153 81.6526V80.6526C10.3595 80.6526 9.86031 80.8513 9.43407 81.2243L10.0926 81.9768ZM10.9153 81.6526H17.8273V80.6526H10.9153V81.6526ZM17.8273 81.6526C18.4167 81.6526 18.7717 81.8156 18.9896 82.0607L19.737 81.3964C19.2723 80.8735 18.6033 80.6526 17.8273 80.6526V81.6526ZM19.0311 82.1023C19.4119 82.4407 19.5651 82.6512 19.6031 82.7463L20.5316 82.3749C20.3989 82.0432 20.0828 81.6991 19.6955 81.3549L19.0311 82.1023ZM19.6305 82.8038L30.8945 103.028L31.7681 102.541L20.5041 82.3173L19.6305 82.8038ZM31.7681 103.028L43.0321 82.8038L42.1585 82.3173L30.8945 102.541L31.7681 103.028ZM43.0241 82.8178C43.1291 82.6428 43.3194 82.3918 43.6116 82.0578L42.859 81.3993C42.5539 81.748 42.3176 82.0517 42.1666 82.3033L43.0241 82.8178ZM43.609 82.0607C43.8215 81.8217 44.1922 81.6526 44.8353 81.6526V80.6526C44.0278 80.6526 43.3318 80.8674 42.8616 81.3964L43.609 82.0607ZM44.8353 81.6526H51.6833V80.6526H44.8353V81.6526ZM51.6833 81.6526C52.0362 81.6526 52.2877 81.76 52.4818 81.9541L53.1889 81.247C52.7856 80.8437 52.2691 80.6526 51.6833 80.6526V81.6526ZM52.5061 81.9768C52.7347 82.1769 52.8473 82.4217 52.8473 82.7526H53.8473C53.8473 82.1448 53.6187 81.6216 53.1646 81.2243L52.5061 81.9768ZM52.8473 82.7526V124.353H53.8473V82.7526H52.8473ZM52.8473 124.353C52.8473 124.683 52.7347 124.928 52.5061 125.128L53.1646 125.881C53.6187 125.484 53.8473 124.96 53.8473 124.353H52.8473ZM52.4818 125.151C52.2877 125.345 52.0362 125.453 51.6833 125.453V126.453C52.2691 126.453 52.7856 126.261 53.1889 125.858L52.4818 125.151ZM51.6833 125.453H44.0673V126.453H51.6833V125.453ZM44.0673 125.453C43.7145 125.453 43.4274 125.344 43.1806 125.128L42.5221 125.881C42.958 126.262 43.4815 126.453 44.0673 126.453V125.453ZM43.2049 125.151C43.0108 124.957 42.9033 124.705 42.9033 124.353H41.9033C41.9033 124.938 42.0945 125.455 42.4978 125.858L43.2049 125.151ZM42.9033 124.353V100.353H41.9033V124.353H42.9033ZM41.9635 100.115L34.7315 113.491L35.6112 113.966L42.8432 100.59L41.9635 100.115ZM34.7144 113.525C34.5755 113.838 34.3652 114.122 34.0741 114.376L34.7326 115.129C35.1241 114.786 35.4258 114.387 35.6282 113.932L34.7144 113.525ZM34.0741 114.376C33.8495 114.573 33.5106 114.701 32.9953 114.701V115.701C33.6747 115.701 34.2745 115.53 34.7326 115.129L34.0741 114.376ZM32.9953 114.701H29.6673V115.701H32.9953V114.701ZM29.6673 114.701C29.152 114.701 28.8131 114.573 28.5886 114.376L27.9301 115.129C28.3882 115.53 28.9879 115.701 29.6673 115.701V114.701ZM28.5886 114.376C28.2892 114.114 28.0488 113.818 27.8644 113.486L26.9902 113.971C27.2325 114.407 27.5468 114.793 27.9301 115.129L28.5886 114.376ZM27.8672 113.491L20.6352 100.115L19.7555 100.59L26.9875 113.966L27.8672 113.491ZM19.6953 100.353V124.353H20.6953V100.353H19.6953ZM19.6953 124.353C19.6953 124.705 19.5878 124.957 19.3938 125.151L20.1009 125.858C20.5042 125.455 20.6953 124.938 20.6953 124.353H19.6953ZM19.3938 125.151C19.1997 125.345 18.9482 125.453 18.5953 125.453V126.453C19.1811 126.453 19.6976 126.261 20.1009 125.858L19.3938 125.151ZM18.5953 125.453H10.9153V126.453H18.5953V125.453ZM58.7328 125.569L58.3532 125.894L58.3782 125.923L58.4074 125.948L58.7328 125.569ZM58.4128 124.033L57.9433 123.861L57.9342 123.886L57.9278 123.911L58.4128 124.033ZM73.4528 82.9446L73.9224 83.1164L73.9296 83.0965L73.9352 83.0761L73.4528 82.9446ZM74.2208 81.7286L74.553 82.1023L74.5553 82.1002L74.2208 81.7286ZM87.0848 81.7286L86.7313 82.0821L86.7509 82.1017L86.7725 82.119L87.0848 81.7286ZM87.9168 82.9446L87.4344 83.0761L87.4399 83.0962L87.4471 83.1158L87.9168 82.9446ZM102.893 124.033L102.423 124.204L102.433 124.231L102.446 124.256L102.893 124.033ZM102.573 125.569L102.926 125.922V125.922L102.573 125.569ZM92.2688 125.505L91.8925 125.834L91.9145 125.859L91.9396 125.881L92.2688 125.505ZM91.6928 124.609L92.1672 124.45L92.1637 124.44L92.1599 124.43L91.6928 124.609ZM89.1968 118.081L89.6639 117.902L89.541 117.581H89.1968V118.081ZM72.1088 118.081V117.581H71.7615L71.6403 117.906L72.1088 118.081ZM69.6768 124.609L69.2083 124.434L69.2052 124.442L69.2025 124.45L69.6768 124.609ZM69.1008 125.505L69.4544 125.858L69.4662 125.846L69.4771 125.834L69.1008 125.505ZM74.7328 108.865L74.2607 108.7L74.0291 109.365H74.7328V108.865ZM86.6368 108.865V109.365H87.3456L87.1079 108.697L86.6368 108.865ZM80.6208 91.9686L81.0919 91.8008L80.6158 90.4637L80.1487 91.804L80.6208 91.9686ZM59.6928 125.453C59.4888 125.453 59.2809 125.38 59.0582 125.189L58.4074 125.948C58.7821 126.269 59.2142 126.453 59.6928 126.453V125.453ZM59.1125 125.243C58.9216 125.02 58.8488 124.813 58.8488 124.609H57.8488C57.8488 125.087 58.0321 125.519 58.3532 125.894L59.1125 125.243ZM58.8488 124.609C58.8488 124.428 58.867 124.277 58.8979 124.154L57.9278 123.911C57.8733 124.129 57.8488 124.363 57.8488 124.609H58.8488ZM58.8824 124.204L73.9224 83.1164L72.9833 82.7727L57.9433 123.861L58.8824 124.204ZM73.9352 83.0761C74.0362 82.7057 74.2372 82.383 74.553 82.1023L73.8886 81.3549C73.4364 81.7568 73.1254 82.2447 72.9704 82.813L73.9352 83.0761ZM74.5553 82.1002C74.8679 81.8189 75.3133 81.6526 75.9488 81.6526V80.6526C75.1337 80.6526 74.4271 80.8702 73.8863 81.3569L74.5553 82.1002ZM75.9488 81.6526H85.4208V80.6526H75.9488V81.6526ZM85.4208 81.6526C86.0595 81.6526 86.4692 81.82 86.7313 82.0821L87.4384 81.375C86.9325 80.8691 86.2328 80.6526 85.4208 80.6526V81.6526ZM86.7725 82.119C87.1271 82.4027 87.3377 82.7213 87.4344 83.0761L88.3992 82.813C88.24 82.2291 87.8959 81.7371 87.3972 81.3381L86.7725 82.119ZM87.4471 83.1158L102.423 124.204L103.363 123.861L88.3866 82.7733L87.4471 83.1158ZM102.446 124.256C102.492 124.35 102.521 124.464 102.521 124.609H103.521C103.521 124.327 103.464 124.057 103.34 123.809L102.446 124.256ZM102.521 124.609C102.521 124.787 102.448 124.987 102.219 125.215L102.926 125.922C103.295 125.553 103.521 125.113 103.521 124.609H102.521ZM102.219 125.215C102.063 125.371 101.873 125.453 101.613 125.453V126.453C102.121 126.453 102.57 126.278 102.926 125.922L102.219 125.215ZM101.613 125.453H93.7408V126.453H101.613V125.453ZM93.7408 125.453C93.1725 125.453 92.8169 125.32 92.5981 125.128L91.9396 125.881C92.4034 126.287 93.0291 126.453 93.7408 126.453V125.453ZM92.6451 125.175C92.3644 124.855 92.2219 124.615 92.1672 124.45L91.2185 124.767C91.3344 125.114 91.5759 125.472 91.8925 125.834L92.6451 125.175ZM92.1599 124.43L89.6639 117.902L88.7298 118.259L91.2258 124.787L92.1599 124.43ZM89.1968 117.581H72.1088V118.581H89.1968V117.581ZM71.6403 117.906L69.2083 124.434L70.1454 124.783L72.5774 118.255L71.6403 117.906ZM69.2025 124.45C69.1477 124.615 69.0052 124.855 68.7245 125.175L69.4771 125.834C69.7938 125.472 70.0353 125.114 70.1512 124.767L69.2025 124.45ZM68.7473 125.151C68.5905 125.308 68.2463 125.453 67.5648 125.453V126.453C68.334 126.453 69.0138 126.299 69.4544 125.858L68.7473 125.151ZM67.5648 125.453H59.6928V126.453H67.5648V125.453ZM74.7328 109.365H86.6368V108.365H74.7328V109.365ZM87.1079 108.697L81.0919 91.8008L80.1498 92.1363L86.1658 109.032L87.1079 108.697ZM80.1487 91.804L74.2607 108.7L75.205 109.029L81.093 92.1331L80.1487 91.804ZM108.513 125.505L108.16 125.858L108.172 125.87L108.184 125.881L108.513 125.505ZM108.513 81.6006L108.184 81.2243L108.172 81.2352L108.16 81.247L108.513 81.6006ZM118.113 81.7286L117.74 82.0607L117.759 82.0827L117.781 82.1023L118.113 81.7286ZM118.817 82.5606L118.353 82.7463L118.365 82.7759L118.381 82.8038L118.817 82.5606ZM130.081 102.785L129.645 103.028L130.081 103.812L130.518 103.028L130.081 102.785ZM141.345 82.5606L140.917 82.3033L140.912 82.3102L140.909 82.3173L141.345 82.5606ZM141.985 81.7286L141.612 81.3964L141.609 81.3993L141.985 81.7286ZM151.585 81.6006L151.232 81.9541L151.244 81.9659L151.256 81.9768L151.585 81.6006ZM151.585 125.505L151.256 125.128L151.244 125.139L151.232 125.151L151.585 125.505ZM141.601 125.505L141.248 125.858L141.26 125.87L141.272 125.881L141.601 125.505ZM141.153 100.353H141.653L140.714 100.115L141.153 100.353ZM133.921 113.729L133.482 113.491L133.472 113.508L133.464 113.525L133.921 113.729ZM133.153 114.753L132.824 114.376L133.153 114.753ZM127.009 114.753L127.339 114.376H127.339L127.009 114.753ZM126.177 113.729L125.737 113.966L125.74 113.971L126.177 113.729ZM118.945 100.353L119.385 100.115L118.445 100.353H118.945ZM109.665 125.453C109.368 125.453 109.099 125.353 108.843 125.128L108.184 125.881C108.61 126.254 109.11 126.453 109.665 126.453V125.453ZM108.867 125.151C108.673 124.957 108.565 124.705 108.565 124.353H107.565C107.565 124.938 107.757 125.455 108.16 125.858L108.867 125.151ZM108.565 124.353V82.7526H107.565V124.353H108.565ZM108.565 82.7526C108.565 82.3997 108.673 82.1482 108.867 81.9541L108.16 81.247C107.757 81.6503 107.565 82.1668 107.565 82.7526H108.565ZM108.843 81.9768C109.099 81.7525 109.368 81.6526 109.665 81.6526V80.6526C109.109 80.6526 108.61 80.8513 108.184 81.2243L108.843 81.9768ZM109.665 81.6526H116.577V80.6526H109.665V81.6526ZM116.577 81.6526C117.167 81.6526 117.522 81.8156 117.74 82.0607L118.487 81.3964C118.022 80.8735 117.353 80.6526 116.577 80.6526V81.6526ZM117.781 82.1023C118.162 82.4407 118.315 82.6512 118.353 82.7463L119.282 82.3749C119.149 82.0432 118.833 81.6991 118.446 81.3549L117.781 82.1023ZM118.381 82.8038L129.645 103.028L130.518 102.541L119.254 82.3173L118.381 82.8038ZM130.518 103.028L141.782 82.8038L140.909 82.3173L129.645 102.541L130.518 103.028ZM141.774 82.8178C141.879 82.6428 142.069 82.3918 142.362 82.0578L141.609 81.3993C141.304 81.748 141.068 82.0517 140.917 82.3033L141.774 82.8178ZM142.359 82.0607C142.572 81.8217 142.942 81.6526 143.585 81.6526V80.6526C142.778 80.6526 142.082 80.8674 141.612 81.3964L142.359 82.0607ZM143.585 81.6526H150.433V80.6526H143.585V81.6526ZM150.433 81.6526C150.786 81.6526 151.038 81.76 151.232 81.9541L151.939 81.247C151.536 80.8437 151.019 80.6526 150.433 80.6526V81.6526ZM151.256 81.9768C151.485 82.1769 151.597 82.4217 151.597 82.7526H152.597C152.597 82.1448 152.369 81.6216 151.915 81.2243L151.256 81.9768ZM151.597 82.7526V124.353H152.597V82.7526H151.597ZM151.597 124.353C151.597 124.683 151.485 124.928 151.256 125.128L151.915 125.881C152.369 125.484 152.597 124.96 152.597 124.353H151.597ZM151.232 125.151C151.038 125.345 150.786 125.453 150.433 125.453V126.453C151.019 126.453 151.536 126.261 151.939 125.858L151.232 125.151ZM150.433 125.453H142.817V126.453H150.433V125.453ZM142.817 125.453C142.464 125.453 142.177 125.344 141.931 125.128L141.272 125.881C141.708 126.262 142.232 126.453 142.817 126.453V125.453ZM141.955 125.151C141.761 124.957 141.653 124.705 141.653 124.353H140.653C140.653 124.938 140.845 125.455 141.248 125.858L141.955 125.151ZM141.653 124.353V100.353H140.653V124.353H141.653ZM140.714 100.115L133.482 113.491L134.361 113.966L141.593 100.59L140.714 100.115ZM133.464 113.525C133.326 113.838 133.115 114.122 132.824 114.376L133.483 115.129C133.874 114.786 134.176 114.387 134.378 113.932L133.464 113.525ZM132.824 114.376C132.6 114.573 132.261 114.701 131.745 114.701V115.701C132.425 115.701 133.024 115.53 133.483 115.129L132.824 114.376ZM131.745 114.701H128.417V115.701H131.745V114.701ZM128.417 114.701C127.902 114.701 127.563 114.573 127.339 114.376L126.68 115.129C127.138 115.53 127.738 115.701 128.417 115.701V114.701ZM127.339 114.376C127.039 114.114 126.799 113.818 126.614 113.486L125.74 113.971C125.982 114.407 126.297 114.793 126.68 115.129L127.339 114.376ZM126.617 113.491L119.385 100.115L118.506 100.59L125.737 113.966L126.617 113.491ZM118.445 100.353V124.353H119.445V100.353H118.445ZM118.445 124.353C118.445 124.705 118.338 124.957 118.144 125.151L118.851 125.858C119.254 125.455 119.445 124.938 119.445 124.353H118.445ZM118.144 125.151C117.95 125.345 117.698 125.453 117.345 125.453V126.453C117.931 126.453 118.448 126.261 118.851 125.858L118.144 125.151ZM117.345 125.453H109.665V126.453H117.345V125.453ZM161.451 125.505L161.804 125.151L161.451 125.505ZM161.451 81.6006L161.804 81.9541V81.9541L161.451 81.6006ZM191.147 82.6886L191.347 82.2303L191.147 82.6886ZM196.331 87.1046L195.898 87.3548L195.905 87.3661L196.331 87.1046ZM197.163 97.9206L196.716 97.6969L196.712 97.7037L197.163 97.9206ZM195.051 100.801L194.716 100.429L194.707 100.438L195.051 100.801ZM192.747 102.465L192.534 102.012L191.576 102.463L192.533 102.916L192.747 102.465ZM197.035 106.241L196.627 106.529L196.631 106.536L197.035 106.241ZM197.035 119.681L196.611 119.416L196.609 119.418L197.035 119.681ZM191.531 124.353L191.735 124.809L191.738 124.807L191.531 124.353ZM172.459 117.633H171.959V118.133H172.459V117.633ZM185.579 116.033L185.954 116.363H185.954L185.579 116.033ZM185.515 108.609L185.146 108.947L185.154 108.955L185.515 108.609ZM172.459 107.073V106.573H171.959V107.073H172.459ZM172.459 98.9446H171.959V99.4446H172.459V98.9446ZM184.747 97.6006L184.393 97.2469L184.385 97.2557L184.747 97.6006ZM184.747 90.8166L184.385 91.1614L184.393 91.1702L184.402 91.1786L184.747 90.8166ZM172.459 89.4726V88.9726H171.959V89.4726H172.459ZM162.603 125.453C162.25 125.453 161.998 125.345 161.804 125.151L161.097 125.858C161.501 126.261 162.017 126.453 162.603 126.453V125.453ZM161.804 125.151C161.61 124.957 161.503 124.705 161.503 124.353H160.503C160.503 124.938 160.694 125.455 161.097 125.858L161.804 125.151ZM161.503 124.353V82.7526H160.503V124.353H161.503ZM161.503 82.7526C161.503 82.3997 161.61 82.1482 161.804 81.9541L161.097 81.247C160.694 81.6503 160.503 82.1668 160.503 82.7526H161.503ZM161.804 81.9541C161.998 81.76 162.25 81.6526 162.603 81.6526V80.6526C162.017 80.6526 161.501 80.8437 161.097 81.247L161.804 81.9541ZM162.603 81.6526H182.123V80.6526H162.603V81.6526ZM182.123 81.6526C185.751 81.6526 188.684 82.1596 190.947 83.1468L191.347 82.2303C188.916 81.1696 185.833 80.6526 182.123 80.6526V81.6526ZM190.947 83.1468C193.211 84.135 194.85 85.541 195.898 87.3547L196.764 86.8544C195.593 84.8281 193.776 83.2901 191.347 82.2303L190.947 83.1468ZM195.905 87.3661C197 89.1514 197.559 91.2972 197.559 93.8246H198.559C198.559 91.1465 197.965 88.8124 196.757 86.843L195.905 87.3661ZM197.559 93.8246C197.559 95.2946 197.273 96.5814 196.716 97.697L197.61 98.1442C198.247 96.8703 198.559 95.4265 198.559 93.8246H197.559ZM196.712 97.7037C196.183 98.8037 195.516 99.7091 194.716 100.429L195.385 101.172C196.292 100.356 197.034 99.3414 197.613 98.1375L196.712 97.7037ZM194.707 100.438C193.921 101.182 193.196 101.7 192.534 102.012L192.96 102.917C193.748 102.546 194.559 101.955 195.395 101.164L194.707 100.438ZM192.533 102.916C194.063 103.641 195.429 104.836 196.627 106.529L197.443 105.952C196.166 104.146 194.674 102.824 192.961 102.013L192.533 102.916ZM196.631 106.536C197.843 108.192 198.455 110.135 198.455 112.385H199.455C199.455 109.941 198.786 107.788 197.438 105.945L196.631 106.536ZM198.455 112.385C198.455 115.123 197.833 117.459 196.611 119.416L197.459 119.946C198.796 117.806 199.455 115.278 199.455 112.385H198.455ZM196.609 119.418C195.431 121.328 193.678 122.824 191.323 123.898L191.738 124.807C194.248 123.663 196.164 122.044 197.46 119.943L196.609 119.418ZM191.327 123.896C189.02 124.926 186.15 125.453 182.699 125.453V126.453C186.245 126.453 189.263 125.912 191.735 124.809L191.327 123.896ZM182.699 125.453H162.603V126.453H182.699V125.453ZM172.459 118.133H181.419V117.133H172.459V118.133ZM181.419 118.133C183.353 118.133 184.895 117.567 185.954 116.363L185.203 115.702C184.386 116.632 183.154 117.133 181.419 117.133V118.133ZM185.954 116.363C186.97 115.209 187.487 113.877 187.487 112.385H186.487C186.487 113.623 186.065 114.723 185.203 115.702L185.954 116.363ZM187.487 112.385C187.487 110.77 186.951 109.385 185.876 108.263L185.154 108.955C186.041 109.88 186.487 111.013 186.487 112.385H187.487ZM185.883 108.271C184.824 107.115 183.308 106.573 181.419 106.573V107.573C183.114 107.573 184.328 108.054 185.146 108.946L185.883 108.271ZM181.419 106.573H172.459V107.573H181.419V106.573ZM171.959 107.073V117.633H172.959V107.073H171.959ZM172.459 99.4446H180.843V98.4446H172.459V99.4446ZM180.843 99.4446C182.671 99.4446 184.128 98.9757 185.109 97.9454L184.385 97.2557C183.659 98.0175 182.513 98.4446 180.843 98.4446V99.4446ZM185.1 97.9541C186.101 96.9535 186.591 95.669 186.591 94.1446H185.591C185.591 95.4361 185.185 96.4556 184.393 97.247L185.1 97.9541ZM186.591 94.1446C186.591 92.658 186.098 91.4125 185.092 90.4545L184.402 91.1786C185.188 91.9273 185.591 92.9004 185.591 94.1446H186.591ZM185.109 90.4717C184.128 89.4415 182.671 88.9726 180.843 88.9726V89.9726C182.513 89.9726 183.659 90.3997 184.385 91.1614L185.109 90.4717ZM180.843 88.9726H172.459V89.9726H180.843V88.9726ZM171.959 89.4726V98.9446H172.959V89.4726H171.959ZM214.129 124.673L214.331 124.215L214.129 124.673ZM207.345 118.913L206.921 119.177L206.923 119.18L207.345 118.913ZM204.657 109.185L204.157 109.196L204.158 109.207L204.657 109.185ZM204.657 98.1126L204.158 98.0904L204.157 98.1012L204.657 98.1126ZM207.345 88.4486L206.922 88.1823L206.921 88.1842L207.345 88.4486ZM234.481 82.4966L234.274 82.9515L234.276 82.9526L234.481 82.4966ZM241.393 88.4486L240.97 88.7148L240.972 88.7179L241.393 88.4486ZM244.081 98.1126L243.582 98.1292L243.582 98.1353L244.081 98.1126ZM244.081 109.185L243.582 109.161L243.582 109.163L244.081 109.185ZM241.393 118.913L241.816 119.18L241.818 119.177L241.393 118.913ZM234.609 124.673L234.408 124.215L234.609 124.673ZM229.873 115.329L229.531 114.964L229.525 114.97L229.873 115.329ZM232.177 108.801L231.678 108.778L231.678 108.786L232.177 108.801ZM232.177 98.3046L231.678 98.3258L231.678 98.3283L232.177 98.3046ZM231.025 93.4406L230.578 93.6642L230.583 93.6732L230.588 93.6821L231.025 93.4406ZM228.337 90.6246L228.107 91.0684V91.0684L228.337 90.6246ZM217.713 93.4406L218.151 93.6821L218.155 93.6759L217.713 93.4406ZM216.561 98.3046L216.062 98.2833L216.061 98.2927L216.561 98.3046ZM216.561 108.801L216.061 108.812L216.062 108.822L216.561 108.801ZM218.865 115.329L218.517 115.688L218.865 115.329ZM224.369 126.093C220.497 126.093 217.156 125.461 214.331 124.215L213.928 125.13C216.906 126.444 220.391 127.093 224.369 127.093V126.093ZM214.331 124.215C211.516 122.973 209.333 121.117 207.768 118.645L206.923 119.18C208.6 121.828 210.94 123.812 213.928 125.13L214.331 124.215ZM207.77 118.648C206.204 116.136 205.325 112.982 205.157 109.163L204.158 109.207C204.331 113.153 205.244 116.484 206.921 119.177L207.77 118.648ZM205.157 109.173C205.115 107.342 205.093 105.511 205.093 103.681H204.093C204.093 105.519 204.115 107.358 204.157 109.196L205.157 109.173ZM205.093 103.681C205.093 101.85 205.115 99.9976 205.157 98.1239L204.157 98.1012C204.115 99.9822 204.093 101.842 204.093 103.681H205.093ZM205.157 98.1348C205.325 94.3592 206.204 91.2264 207.77 88.7129L206.921 88.1842C205.244 90.8761 204.331 94.186 204.158 98.0904L205.157 98.1348ZM207.769 88.7148C209.379 86.1538 211.586 84.2346 214.401 82.9515L213.986 82.0416C210.998 83.4039 208.639 85.4526 206.922 88.1823L207.769 88.7148ZM214.401 82.9515C217.224 81.6643 220.543 81.0126 224.369 81.0126V80.0126C220.43 80.0126 216.965 80.6835 213.986 82.0416L214.401 82.9515ZM224.369 81.0126C228.152 81.0126 231.45 81.664 234.274 82.9515L234.689 82.0416C231.71 80.6838 228.267 80.0126 224.369 80.0126V81.0126ZM234.276 82.9526C237.134 84.2363 239.36 86.1557 240.97 88.7148L241.817 88.1823C240.098 85.4507 237.717 83.4021 234.686 82.0405L234.276 82.9526ZM240.972 88.7179C242.577 91.2285 243.456 94.3573 243.582 98.1292L244.581 98.0959C244.451 94.1879 243.537 90.874 241.815 88.1792L240.972 88.7179ZM243.582 98.1353C243.667 100.005 243.709 101.854 243.709 103.681H244.709C244.709 101.838 244.666 99.9746 244.581 98.0899L243.582 98.1353ZM243.709 103.681C243.709 105.507 243.667 107.334 243.582 109.161L244.581 109.208C244.666 107.365 244.709 105.523 244.709 103.681H243.709ZM243.582 109.163C243.414 112.982 242.534 116.136 240.969 118.648L241.818 119.177C243.495 116.484 244.407 113.153 244.581 109.207L243.582 109.163ZM240.971 118.645C239.405 121.117 237.223 122.973 234.408 124.215L234.811 125.13C237.799 123.812 240.139 121.828 241.816 119.18L240.971 118.645ZM234.408 124.215C231.583 125.461 228.241 126.093 224.369 126.093V127.093C228.348 127.093 231.833 126.444 234.811 125.13L234.408 124.215ZM224.369 117.877C226.739 117.877 228.706 117.157 230.221 115.688L229.525 114.97C228.225 116.231 226.522 116.877 224.369 116.877V117.877ZM230.216 115.693C231.803 114.199 232.59 111.869 232.677 108.815L231.678 108.786C231.594 111.706 230.845 113.727 229.531 114.964L230.216 115.693ZM232.677 108.823C232.762 106.939 232.805 105.161 232.805 103.489H231.805C231.805 105.144 231.763 106.907 231.678 108.778L232.677 108.823ZM232.805 103.489C232.805 101.816 232.762 100.08 232.677 98.2808L231.678 98.3283C231.763 100.113 231.805 101.833 231.805 103.489H232.805ZM232.677 98.2833C232.59 96.2311 232.195 94.5264 231.463 93.199L230.588 93.6821C231.221 94.8294 231.594 96.3674 231.678 98.3258L232.677 98.2833ZM231.473 93.217C230.79 91.8526 229.823 90.8317 228.567 90.1807L228.107 91.0684C229.156 91.6121 229.98 92.4685 230.578 93.6642L231.473 93.217ZM228.567 90.1807C227.334 89.5413 225.931 89.2286 224.369 89.2286V90.2286C225.795 90.2286 227.036 90.5132 228.107 91.0684L228.567 90.1807ZM224.369 89.2286C222.848 89.2286 221.466 89.5423 220.235 90.1807L220.695 91.0684C221.768 90.5121 222.989 90.2286 224.369 90.2286V89.2286ZM220.235 90.1807C218.983 90.83 217.997 91.8469 217.272 93.2053L218.155 93.6759C218.795 92.4742 219.644 91.6138 220.695 91.0684L220.235 90.1807ZM217.276 93.199C216.543 94.5264 216.149 96.2311 216.062 98.2833L217.061 98.3258C217.144 96.3674 217.518 94.8294 218.151 93.6821L217.276 93.199ZM216.061 98.2927C216.019 100.088 215.997 101.82 215.997 103.489H216.997C216.997 101.829 217.019 100.105 217.061 98.3165L216.061 98.2927ZM215.997 103.489C215.997 105.157 216.019 106.931 216.061 108.812L217.061 108.789C217.019 106.915 216.997 105.148 216.997 103.489H215.997ZM216.062 108.822C216.192 111.871 216.979 114.196 218.517 115.688L219.213 114.97C217.935 113.73 217.186 111.703 217.061 108.779L216.062 108.822ZM218.517 115.688C220.033 117.157 221.999 117.877 224.369 117.877V116.877C222.216 116.877 220.514 116.231 219.213 114.97L218.517 115.688Z" fill="white"/>
</g>
<g filter="url(#filter2_d_496_251)">
<path d="M159.5 50.3622C159.5 66.7545 169.337 75.9526 185.73 75.9526C202.122 75.9526 211.959 66.7545 211.959 50.3622C211.959 41.5961 205.313 32.9283 198.672 24.2668C192.895 16.7314 188.282 11.2407 185.73 4.2988C183.177 11.3865 178.565 16.7314 172.787 24.2668C166.146 32.9283 159.5 41.5961 159.5 50.3622Z" fill="#ACDAEF"/>
<path d="M185.73 75.4526C177.625 75.4526 171.206 73.1799 166.815 68.9446C162.427 64.712 160 58.4574 160 50.3622C160 46.1039 161.615 41.8347 164.087 37.524C166.559 33.213 169.858 28.908 173.184 24.571C173.964 23.5538 174.724 22.5749 175.462 21.6246C179.853 15.9702 183.456 11.3299 185.734 5.68821C188.068 11.3628 191.787 16.1723 196.32 22.0355C196.957 22.8581 197.609 23.7016 198.275 24.571C201.601 28.908 204.9 33.213 207.372 37.524C209.844 41.8347 211.459 46.1039 211.459 50.3622C211.459 58.4574 209.033 64.712 204.644 68.9446C200.254 73.1799 193.834 75.4526 185.73 75.4526Z" stroke="#ACDAEF" stroke-linejoin="round"/>
</g>
<g filter="url(#filter3_d_496_251)">
<path fill-rule="evenodd" clip-rule="evenodd" d="M184.875 75.9526C180.062 52.7637 180.869 35.7535 185.845 4.62159C185.806 4.51719 185.768 4.41241 185.73 4.30725C183.472 10.447 179.603 15.4515 174.742 21.7395C174.107 22.5611 173.455 23.4045 172.787 24.2752C166.146 32.9368 159.5 41.6046 159.5 50.3706C159.5 66.4761 168.996 75.6368 184.875 75.9526Z" fill="#8BB9CE"/>
</g>
<path d="M193.533 69.5289C196.547 69.1886 203.217 66.6702 205.784 59.3192" stroke="#FAFAFA" stroke-width="2" stroke-linecap="round" stroke-linejoin="round"/>
<defs>
<filter id="filter0_d_496_251" x="0.910156" y="33.5526" width="146.318" height="36.8" filterUnits="userSpaceOnUse" color-interpolation-filters="sRGB">
<feFlood flood-opacity="0" result="BackgroundImageFix"/>
<feColorMatrix in="SourceAlpha" type="matrix" values="0 0 0 0 0 0 0 0 0 0 0 0 0 0 0 0 0 0 127 0" result="hardAlpha"/>
<feOffset/>
<feGaussianBlur stdDeviation="2"/>
<feComposite in2="hardAlpha" operator="out"/>
<feColorMatrix type="matrix" values="0 0 0 0 0.979167 0 0 0 0 0.979167 0 0 0 0 0.979167 0 0 0 0.5 0"/>
<feBlend mode="normal" in2="BackgroundImageFix" result="effect1_dropShadow_496_251"/>
<feBlend mode="normal" in="SourceGraphic" in2="effect1_dropShadow_496_251" result="shape"/>
</filter>
<filter id="filter1_d_496_251" x="5.31534" y="76.5126" width="242.894" height="54.08" filterUnits="userSpaceOnUse" color-interpolation-filters="sRGB">
<feFlood flood-opacity="0" result="BackgroundImageFix"/>
<feColorMatrix in="SourceAlpha" type="matrix" values="0 0 0 0 0 0 0 0 0 0 0 0 0 0 0 0 0 0 127 0" result="hardAlpha"/>
<feOffset/>
<feGaussianBlur stdDeviation="2"/>
<feComposite in2="hardAlpha" operator="out"/>
<feColorMatrix type="matrix" values="0 0 0 0 0.979167 0 0 0 0 0.979167 0 0 0 0 0.979167 0 0 0 0.5 0"/>
<feBlend mode="normal" in2="BackgroundImageFix" result="effect1_dropShadow_496_251"/>
<feBlend mode="normal" in="SourceGraphic" in2="effect1_dropShadow_496_251" result="shape"/>
</filter>
<filter id="filter2_d_496_251" x="155.5" y="0.298798" width="60.4591" height="79.6538" filterUnits="userSpaceOnUse" color-interpolation-filters="sRGB">
<feFlood flood-opacity="0" result="BackgroundImageFix"/>
<feColorMatrix in="SourceAlpha" type="matrix" values="0 0 0 0 0 0 0 0 0 0 0 0 0 0 0 0 0 0 127 0" result="hardAlpha"/>
<feOffset/>
<feGaussianBlur stdDeviation="2"/>
<feComposite in2="hardAlpha" operator="out"/>
<feColorMatrix type="matrix" values="0 0 0 0 0 0 0 0 0 0 0 0 0 0 0 0 0 0 0.25 0"/>
<feBlend mode="normal" in2="BackgroundImageFix" result="effect1_dropShadow_496_251"/>
<feBlend mode="normal" in="SourceGraphic" in2="effect1_dropShadow_496_251" result="shape"/>
</filter>
<filter id="filter3_d_496_251" x="155.5" y="0.307251" width="34.3445" height="79.6453" filterUnits="userSpaceOnUse" color-interpolation-filters="sRGB">
<feFlood flood-opacity="0" result="BackgroundImageFix"/>
<feColorMatrix in="SourceAlpha" type="matrix" values="0 0 0 0 0 0 0 0 0 0 0 0 0 0 0 0 0 0 127 0" result="hardAlpha"/>
<feOffset/>
<feGaussianBlur stdDeviation="2"/>
<feComposite in2="hardAlpha" operator="out"/>
<feColorMatrix type="matrix" values="0 0 0 0 0.67451 0 0 0 0 0.854902 0 0 0 0 0.937255 0 0 0 0.2 0"/>
<feBlend mode="normal" in2="BackgroundImageFix" result="effect1_dropShadow_496_251"/>
<feBlend mode="normal" in="SourceGraphic" in2="effect1_dropShadow_496_251" result="shape"/>
</filter>
</defs>
</svg>
