<svg width="112" height="152" viewBox="0 0 112 152" fill="none" xmlns="http://www.w3.org/2000/svg">
<path d="M55.6122 115.908C42.3881 115.908 31.8734 112.199 24.6667 105.248C17.4626 98.2988 13.5 88.0484 13.5 74.8339C13.5 67.8381 16.1529 60.8466 20.1808 53.8219C24.2089 46.7968 29.5834 39.7858 34.9826 32.744C36.2519 31.0885 37.4882 29.4964 38.6874 27.9519C46.0112 18.5198 51.9541 10.8662 55.6169 1.41536C59.3676 10.9083 65.503 18.8434 73.0658 28.6245C74.0987 29.9604 75.1581 31.3306 76.2418 32.744C81.641 39.7858 87.0155 46.7968 91.0436 53.8219C95.0715 60.8466 97.7244 67.8381 97.7244 74.8339C97.7244 88.0484 93.7618 98.2988 86.5577 105.248C79.351 112.199 68.8363 115.908 55.6122 115.908Z" fill="#ACDAEF" stroke="#ACDAEF" stroke-linejoin="round"/>
<path fill-rule="evenodd" clip-rule="evenodd" d="M54.2237 116.408C46.4039 78.7354 47.7155 51.1009 55.799 0.524352C55.736 0.354764 55.6738 0.184573 55.6123 0.0137586C51.9449 9.98823 45.6593 18.1186 37.7617 28.334C36.7298 29.6687 35.6705 31.0389 34.5859 32.4535C23.7969 46.5249 13.0001 60.6065 13.0001 74.8477C13.0001 101.012 28.4269 115.895 54.2237 116.408Z" fill="#8BB9CE"/>
<path d="M68.2889 105.972C73.1858 105.419 84.0224 101.328 88.1927 89.3854" stroke="#FAFAFA" stroke-width="2" stroke-linecap="round" stroke-linejoin="round"/>
<g opacity="0.5" filter="url(#filter0_f_444_251)">
<ellipse cx="56" cy="132.029" rx="47" ry="10.5" fill="#D8D9DA" fill-opacity="0.64"/>
</g>
<defs>
<filter id="filter0_f_444_251" x="0" y="112.529" width="112" height="39" filterUnits="userSpaceOnUse" color-interpolation-filters="sRGB">
<feFlood flood-opacity="0" result="BackgroundImageFix"/>
<feBlend mode="normal" in="SourceGraphic" in2="BackgroundImageFix" result="shape"/>
<feGaussianBlur stdDeviation="4.5" result="effect1_foregroundBlur_444_251"/>
</filter>
</defs>
</svg>
